# xmcd CD database file
#
# Track frame offsets:
#	150
#	34747
#	63391
#	80897
#	101711
#	116918
#	145956
#	169516
#	192129
#	214680
#	236023
#	250945
#	288744
#	316224
#
# Disc length: 4437 seconds
#
# Revision: 0
# Processed by: cddbd v1.5.1PL2 Copyright (c) Steve Scherf et al.
# Submitted via: CDex 1.51
#
DISCID=d211530e
DTITLE=Artistes Variés - Jazz Les folles nuits de Montréal
DYEAR=2005
DGENRE=Jazz
TTITLE0=Oscar Peterson Trio - A Foggy Day
TTITLE1=Nelson Symonds Quartet - Getting Personal
TTITLE2=Johanne Blouin et Vic Vogel - I Can't Make You Love Me
TTITLE3=Brian Barley Trio - Plexidance
TTITLE4=Gordie Fleming - Avila And Tequila
TTITLE5=Charlie Biddle - Blues For Charlie
TTITLE6=Maynard Ferguson Sextet - My Sister
TTITLE7=Ranee Lee - Fine And Mellow
TTITLE8=Paul Bley avec Herbie Spanier - Inception
TTITLE9=Oliver Jones - D.B.G. Blues
TTITLE10=Susie Arioli Band - It's All Your Fault
TTITLE11=Quatuor Michel Donato - Rêverie
TTITLE12=Oliver Jones et Skip Bey - Bogey's Blues
TTITLE13=Coral Egan - Here's Hoping
EXTD=YEAR: 2005
EXTT0=
EXTT1=
EXTT2=
EXTT3=
EXTT4=
EXTT5=
EXTT6=
EXTT7=
EXTT8=
EXTT9=
EXTT10=
EXTT11=
EXTT12=
EXTT13=
PLAYORDER=
